<svg width="960" height="720" xmlns="http://www.w3.org/2000/svg" xmlns:xlink="http://www.w3.org/1999/xlink" overflow="hidden"><g><rect x="0" y="0" width="960" height="720"/><rect x="33" y="323" width="199" height="333" stroke="#FFFFFF" stroke-width="20" stroke-miterlimit="8" fill="#00B050" fill-opacity="0.698039"/><text fill="#FFFFFF" font-family="Cambria Math,Cambria Math_MSFontService,sans-serif" font-weight="700" font-size="184" transform="translate(82.3479 558)">3</text><rect x="277" y="323" width="199" height="333" stroke="#FFFFFF" stroke-width="20" stroke-miterlimit="8" fill="#00B050" fill-opacity="0.698039"/><text fill="#FFFF00" font-family="Cambria Math,Cambria Math_MSFontService,sans-serif" font-weight="700" font-size="184" transform="translate(326.541 558)">1</text><rect x="728" y="323" width="199" height="333" stroke="#FFFFFF" stroke-width="20" stroke-miterlimit="8" fill="#00B050" fill-opacity="0.698039"/><path d="M123.709 66.9383 219.129 66.9383 212.289 98.2833 201.205 98.2833C201.148 91.8758 200.772 87.3876 200.08 84.8188 199.387 82.25 198.276 80.3162 196.746 79.0174 195.216 77.7186 193.066 77.0692 190.295 77.0692L182.589 77.0692 163.972 161.753C163.568 163.658 163.28 165.274 163.106 166.602 162.933 167.929 162.847 169.69 162.847 171.884 162.847 174.539 163.525 176.415 164.882 177.512 166.238 178.609 168.359 179.244 171.246 179.417L170.034 185.132 124.055 185.132 125.267 179.417C127.807 179.07 129.828 178.32 131.328 177.166 132.829 176.011 134.085 174.294 135.095 172.013 136.105 169.733 137.13 166.313 138.169 161.753L156.785 77.0692 149.858 77.0692C146.684 77.0692 144.115 77.5454 142.152 78.4979 140.189 79.4503 137.996 81.4419 135.571 84.4725 133.147 87.5031 130.809 91.5006 128.558 96.465L117.215 96.465Z" fill="#FFFFFF" fill-rule="evenodd"/><text fill="#000000" fill-opacity="0" font-family="Arial,Arial_MSFontService,sans-serif" font-size="118.193" x="117.215" y="170.357">𝑻</text><path d="M265.015 134.032 273.106 134.032C272.853 138.078 272.727 143.682 272.727 150.846L272.727 203.69C272.727 206.134 272.864 207.977 273.138 209.22 273.411 210.463 273.896 211.475 274.591 212.254 275.287 213.034 276.288 213.645 277.594 214.087 278.9 214.53 280.544 214.867 282.524 215.099 284.505 215.331 287.117 215.489 290.362 215.573L290.362 221.325 235.812 221.325 235.812 215.573C240.49 215.362 243.829 215.078 245.831 214.72 247.833 214.361 249.36 213.824 250.414 213.108 251.467 212.391 252.236 211.38 252.721 210.074 253.205 208.767 253.448 206.639 253.448 203.69L253.448 157.989C253.448 156.261 253.121 155.018 252.468 154.26 251.815 153.501 250.919 153.122 249.782 153.122 248.728 153.122 247.243 153.606 245.325 154.576 243.408 155.545 240.258 157.525 235.876 160.517L232.02 153.817Z" fill="#FFFFFF" fill-rule="evenodd"/><text fill="#000000" fill-opacity="0" font-family="Arial,Arial_MSFontService,sans-serif" font-size="87.2925" x="232.02" y="210.413">𝟏</text><path d="M104 291C104 277.193 105.865 266 108.166 266L204.834 266C207.135 266 209 254.807 209 241 209 254.807 210.865 266 213.166 266L309.834 266C312.135 266 314 277.193 314 291" stroke="#FFFFFF" stroke-width="20" stroke-miterlimit="8" fill="none" fill-rule="evenodd"/><path d="M371 289C371 275.193 372.865 264 375.166 264L471.834 264C474.135 264 476 252.807 476 239 476 252.807 477.865 264 480.166 264L576.833 264C579.135 264 581 275.193 581 289" stroke="#FFFFFF" stroke-width="20" stroke-miterlimit="8" fill="none" fill-rule="evenodd"/><path d="M367.089 63.1742 462.51 63.1742 455.669 94.5193 444.586 94.5193C444.528 88.1117 444.153 83.6235 443.46 81.0547 442.767 78.486 441.656 76.5521 440.126 75.2533 438.597 73.9545 436.446 73.3051 433.676 73.3051L425.969 73.3051 407.353 157.989C406.949 159.894 406.66 161.51 406.487 162.838 406.314 164.165 406.227 165.926 406.227 168.12 406.227 170.775 406.905 172.651 408.262 173.748 409.618 174.845 411.74 175.48 414.626 175.653L413.414 181.368 367.435 181.368 368.648 175.653C371.188 175.306 373.208 174.556 374.709 173.401 376.21 172.247 377.465 170.53 378.475 168.249 379.486 165.969 380.51 162.549 381.549 157.989L400.166 73.3051 393.239 73.3051C390.064 73.3051 387.495 73.7813 385.532 74.7338 383.57 75.6863 381.376 77.6778 378.952 80.7084 376.527 83.739 374.189 87.7365 371.938 92.7009L360.595 92.7009Z" fill="#FFFFFF" fill-rule="evenodd"/><text fill="#000000" fill-opacity="0" font-family="Arial,Arial_MSFontService,sans-serif" font-size="118.193" x="360.595" y="166.593">𝑻</text><path d="M503.465 130.268C509.66 130.268 514.716 131.101 518.635 132.765 522.554 134.43 525.388 136.684 527.137 139.529 528.886 142.373 529.76 145.692 529.76 149.484 529.76 152.813 529.139 155.91 527.896 158.776 526.653 161.641 524.503 164.907 521.448 168.573 518.393 172.24 513.242 177.486 505.994 184.313 503.76 186.42 501.095 189.19 497.998 192.625 494.9 196.059 492.446 198.998 490.634 201.442L490.634 202.075 513.073 202.075C515.812 202.075 517.856 201.874 519.204 201.474 520.553 201.074 521.617 200.378 522.396 199.388 523.176 198.398 523.819 196.912 524.324 194.932L531.593 194.932 530.14 217.561 472.24 217.561 472.24 213.389C475.484 205.93 482.121 196.322 492.151 184.565 496.702 179.214 500.168 174.81 502.549 171.355 504.93 167.899 506.71 164.633 507.89 161.557 509.07 158.481 509.66 155.299 509.66 152.013 509.66 147.377 508.627 143.743 506.562 141.109 504.498 138.475 501.674 137.158 498.092 137.158 491.224 137.158 486.82 142.11 484.882 152.013L473.504 152.013 473.504 137.095C480.373 134.314 485.914 132.481 490.128 131.596 494.342 130.711 498.788 130.268 503.465 130.268Z" fill="#FFFFFF" fill-rule="evenodd"/><text fill="#000000" fill-opacity="0" font-family="Arial,Arial_MSFontService,sans-serif" font-size="87.2925" x="472.24" y="206.649">𝟐</text><text fill="#FFFFFF" font-family="Yu Gothic,Yu Gothic_MSFontService,sans-serif" font-weight="700" font-size="148" transform="translate(490.013 550)">･･･</text><path d="M651 294C651 280.193 652.865 269 655.166 269L752.333 269C754.635 269 756.5 257.807 756.5 244 756.5 257.807 758.365 269 760.666 269L857.833 269C860.135 269 862 280.193 862 294" stroke="#FFFFFF" stroke-width="20" stroke-miterlimit="8" fill="none" fill-rule="evenodd"/><path d="M605.829 66.9383 701.25 66.9383 694.409 98.2833 683.326 98.2833C683.268 91.8758 682.893 87.3876 682.2 84.8188 681.507 82.25 680.396 80.3162 678.866 79.0174 677.337 77.7186 675.186 77.0692 672.416 77.0692L664.709 77.0692 646.093 161.753C645.689 163.658 645.4 165.274 645.227 166.602 645.054 167.929 644.967 169.69 644.967 171.884 644.967 174.539 645.645 176.415 647.002 177.512 648.358 178.609 650.48 179.244 653.366 179.417L652.154 185.132 606.175 185.132 607.388 179.417C609.928 179.07 611.948 178.32 613.449 177.166 614.95 176.011 616.205 174.294 617.215 172.013 618.226 169.733 619.25 166.313 620.289 161.753L638.906 77.0692 631.979 77.0692C628.804 77.0692 626.235 77.5454 624.272 78.4979 622.31 79.4503 620.116 81.4419 617.692 84.4725 615.267 87.5031 612.929 91.5006 610.678 96.465L599.335 96.465Z" fill="#FFFFFF" fill-rule="evenodd"/><text fill="#000000" fill-opacity="0" font-family="Arial,Arial_MSFontService,sans-serif" font-size="118.193" x="599.335" y="170.357">𝑻</text><path d="M726.845 157.61C730.343 157.61 733.135 158.589 735.22 160.549 737.306 162.508 738.349 165.089 738.349 168.292 738.349 169.346 738.223 170.357 737.97 171.326L738.602 171.832C742.563 166.901 746.324 163.299 749.885 161.023 753.446 158.747 757.607 157.61 762.369 157.61 766.709 157.61 770.112 158.832 772.577 161.276 775.043 163.72 776.275 167.049 776.275 171.263 776.275 172.611 776.138 174.297 775.864 176.32 775.59 178.342 775.264 180.133 774.885 181.693L769.891 201.414C769.175 204.237 768.816 206.702 768.816 208.809 768.816 210.453 769.09 211.591 769.638 212.223 770.186 212.855 770.966 213.171 771.977 213.171 773.199 213.171 774.568 212.592 776.086 211.433 777.603 210.274 779.393 208.515 781.458 206.155L786.009 210.706C781.88 214.92 778.182 217.912 774.916 219.682 771.65 221.451 768.058 222.336 764.139 222.336 759.672 222.336 756.406 221.23 754.341 219.018 752.277 216.806 751.244 213.55 751.244 209.252 751.244 206.176 751.855 202.236 753.077 197.432L755.858 186.939C756.575 184.242 757.186 181.577 757.692 178.943 758.197 176.309 758.45 174.15 758.45 172.464 758.45 170.568 758.05 169.156 757.249 168.229 756.448 167.302 755.311 166.838 753.836 166.838 751.771 166.838 749.411 168.06 746.756 170.504 744.101 172.949 741.973 175.53 740.372 178.248 738.771 180.966 737.507 184.516 736.579 188.898L729.5 221.325 711.359 221.325 721.536 177.394C722.168 174.655 722.484 172.569 722.484 171.137 722.484 169.746 722.252 168.671 721.788 167.913 721.325 167.154 720.524 166.775 719.386 166.775 718.08 166.775 716.668 167.365 715.151 168.545 713.634 169.725 711.865 171.474 709.842 173.791L705.291 169.24C709.505 164.942 713.245 161.929 716.51 160.201 719.776 158.474 723.221 157.61 726.845 157.61Z" fill="#FFFFFF" fill-rule="evenodd"/><text fill="#000000" fill-opacity="0" font-family="Arial,Arial_MSFontService,sans-serif" font-size="64.7267" x="705.291" y="214.246">𝒏</text><path d="M798.289 179.48 871.107 179.48 871.107 189.151 798.289 189.151Z" fill="#FFFFFF" fill-rule="evenodd"/><text fill="#000000" fill-opacity="0" font-family="Arial,Arial_MSFontService,sans-serif" font-size="9.67107" x="798.289" y="187.942">−</text><path d="M925.135 134.032 933.226 134.032C932.974 138.078 932.847 143.682 932.847 150.846L932.847 203.69C932.847 206.134 932.984 207.977 933.258 209.22 933.532 210.463 934.016 211.475 934.712 212.254 935.407 213.034 936.408 213.645 937.714 214.087 939.021 214.53 940.664 214.867 942.645 215.099 944.625 215.331 947.238 215.489 950.483 215.573L950.483 221.325 895.933 221.325 895.933 215.573C900.61 215.362 903.95 215.078 905.951 214.72 907.953 214.361 909.481 213.824 910.534 213.108 911.588 212.391 912.357 211.38 912.841 210.074 913.326 208.767 913.568 206.639 913.568 203.69L913.568 157.989C913.568 156.261 913.242 155.018 912.588 154.26 911.935 153.501 911.04 153.122 909.902 153.122 908.848 153.122 907.363 153.606 905.446 154.576 903.528 155.545 900.378 157.525 895.996 160.517L892.14 153.817Z" fill="#FFFFFF" fill-rule="evenodd"/><text fill="#000000" fill-opacity="0" font-family="Arial,Arial_MSFontService,sans-serif" font-size="87.2925" x="892.14" y="210.413">𝟏</text></g></svg>