<svg width="960" height="720" xmlns="http://www.w3.org/2000/svg" xmlns:xlink="http://www.w3.org/1999/xlink" overflow="hidden"><g><rect x="0" y="0" width="960" height="720"/><path d="M50 297 50.0001 606.333" stroke="#FFC000" stroke-width="20" stroke-miterlimit="8" fill="none" fill-rule="evenodd"/><path d="M372 297 372 606.333" stroke="#FFC000" stroke-width="20" stroke-miterlimit="8" fill="none" fill-rule="evenodd"/><path d="M41 601 383.418 601" stroke="#FFC000" stroke-width="20" stroke-miterlimit="8" fill="none" fill-rule="evenodd"/><path d="M577 291 577 600.333" stroke="#11C1FF" stroke-width="20" stroke-miterlimit="8" fill="none" fill-rule="evenodd"/><path d="M898 291 898 600.333" stroke="#11C1FF" stroke-width="20" stroke-miterlimit="8" fill="none" fill-rule="evenodd"/><path d="M567 595 909.417 595" stroke="#11C1FF" stroke-width="20" stroke-miterlimit="8" fill="none" fill-rule="evenodd"/><path d="M272.837 343.5C264.975 215.664 396.726 195.611 462.669 194.544 528.613 193.476 667.57 211.267 668.5 337.093" stroke="#9DC3E6" stroke-width="30.6667" stroke-miterlimit="8" fill="none" fill-rule="evenodd"/><path d="M323.5 311.5 275.5 389.5 227.5 311.5Z" stroke="#9DC3E6" stroke-width="1.33333" stroke-miterlimit="8" fill="#9DC3E6" fill-rule="evenodd"/><path d="M655.163 537.5C663.025 666.194 531.274 686.381 465.331 687.456 399.387 688.531 260.43 670.621 259.5 543.95" stroke="#9DC3E6" stroke-width="30.6667" stroke-miterlimit="8" fill="none" fill-rule="evenodd"/><path d="M604.5 570.5 653 492.5 701.5 570.5Z" stroke="#9DC3E6" stroke-width="1.33333" stroke-miterlimit="8" fill="#9DC3E6" fill-rule="evenodd"/><path d="M183.224 392.725 222.848 392.725 221.745 397.925C218.752 398.765 216.546 400.235 215.128 402.336 213.71 404.437 212.371 408.323 211.11 413.995L194.095 490.88 208.983 490.88C211.557 490.88 213.552 490.67 214.97 490.25 216.388 489.83 217.675 489.174 218.83 488.281 219.986 487.388 221.259 486.154 222.651 484.578 224.043 483.003 225.421 480.955 226.787 478.434 228.152 475.913 229.544 472.762 230.962 468.981L241.675 468.981 233.64 500.255 161.56 500.255 162.663 495.055C165.656 494.215 167.862 492.745 169.28 490.644 170.698 488.543 172.037 484.657 173.298 478.985L187.635 413.995C188.318 410.896 188.659 407.824 188.659 404.778 188.659 402.572 188.147 400.958 187.123 399.933 186.099 398.909 184.431 398.24 182.121 397.925Z" fill="#FFC000" fill-rule="evenodd"/><text fill="#000000" fill-opacity="0" font-family="Arial,Arial_MSFontService,sans-serif" font-size="107.529" x="161.56" y="486.814">𝑳</text><path d="M751.589 401.942C747.597 401.942 744.919 401.995 743.554 402.1L734.337 444.718 739.3 444.718C746.074 444.718 751.366 443.68 755.173 441.606 758.981 439.531 762.013 436.367 764.272 432.113 766.53 427.86 767.659 422.87 767.659 417.146 767.659 412.052 766.372 408.244 763.799 405.723 761.226 403.203 757.156 401.942 751.589 401.942ZM713.067 392.725 752.377 392.725C757.838 392.725 762.289 392.896 765.729 393.237 769.169 393.579 772.53 394.367 775.812 395.601 779.095 396.835 781.812 398.424 783.966 400.367 786.119 402.31 787.773 404.66 788.929 407.417 790.084 410.174 790.662 413.338 790.662 416.91 790.662 424.84 788.325 431.562 783.651 437.076 778.977 442.591 771.86 447.002 762.302 450.311L762.381 451.02C765.532 453.593 767.83 456.074 769.274 458.464 770.718 460.854 771.939 464.333 772.937 468.902L775.222 479.93C776.062 483.922 776.863 486.771 777.624 488.478 778.386 490.185 779.41 491.576 780.697 492.653 781.983 493.729 783.756 494.53 786.014 495.055L784.911 500.255 756.788 500.255C755.055 495.318 753.532 489.462 752.219 482.688L749.698 469.611C748.963 465.672 748.096 462.573 747.099 460.315 746.101 458.057 744.84 456.429 743.317 455.431 741.794 454.433 739.746 453.934 737.173 453.934L732.289 453.934 726.617 478.985C726.249 480.718 725.987 482.215 725.829 483.475 725.671 484.736 725.593 486.311 725.593 488.202 725.593 490.618 726.21 492.325 727.444 493.322 728.678 494.32 730.608 494.898 733.234 495.055L732.131 500.255 691.404 500.255 692.507 495.055C695.5 494.215 697.706 492.745 699.124 490.644 700.542 488.543 701.881 484.657 703.141 478.985L717.479 413.995C718.161 410.896 718.503 407.824 718.503 404.778 718.503 402.572 717.991 400.958 716.967 399.933 715.943 398.909 714.275 398.24 711.964 397.925Z" fill="#11C1FF" fill-rule="evenodd"/><text fill="#000000" fill-opacity="0" font-family="Arial,Arial_MSFontService,sans-serif" font-size="107.529" x="691.404" y="486.814">𝑹</text><path d="M335.556 16.2742 375.181 16.2742 374.078 21.4734C371.084 22.3137 368.878 23.7842 367.46 25.8848 366.043 27.9855 364.703 31.8718 363.443 37.5437L357.535 64.17 358.716 64.17C360.922 64.17 362.918 63.7893 364.703 63.0278 366.489 62.2663 368.458 61.0321 370.612 59.3253 372.765 57.6185 376.283 54.3493 381.167 49.5177 386.052 44.6861 389.583 40.9573 391.763 38.3315 393.942 35.7056 395.492 33.4867 396.411 31.6749 397.33 29.863 397.789 28.1956 397.789 26.6726 397.789 24.8345 397.369 23.561 396.529 22.852 395.689 22.143 394.297 21.6835 392.354 21.4734L393.535 16.2742 431.978 16.2742 430.796 21.6309C429.063 21.9986 427.54 22.4975 426.227 23.1277 424.914 23.7579 423.273 24.887 421.304 26.5151 419.334 28.1431 416.407 30.8215 412.52 34.5502L384.003 61.8855 400.625 102.849C402.201 106.735 403.592 109.742 404.8 111.869 406.008 113.996 407.229 115.545 408.463 116.517 409.698 117.488 411.312 118.21 413.308 118.683L412.284 123.803 372.896 123.803 374.078 118.604C375.496 118.447 376.493 118.079 377.071 117.501 377.649 116.924 377.938 115.978 377.938 114.665 377.938 113.405 377.675 111.79 377.15 109.821 376.625 107.851 375.496 104.635 373.763 100.171L366.594 81.5795C365.596 79.0062 364.664 77.1287 363.797 75.947 362.931 74.7654 362.012 73.9382 361.04 73.4656 360.069 72.9929 358.664 72.7566 356.826 72.7566L355.644 72.7566 349.106 102.534C348.738 104.267 348.475 105.724 348.318 106.906 348.16 108.088 348.082 109.703 348.082 111.751 348.082 113.956 348.594 115.571 349.618 116.595 350.642 117.62 352.309 118.289 354.62 118.604L353.517 123.803 313.893 123.803 314.996 118.604C317.989 117.764 320.195 116.293 321.613 114.193 323.031 112.092 324.37 108.206 325.63 102.534L339.968 37.5437C340.65 34.4452 340.992 31.3729 340.992 28.3269 340.992 26.1212 340.48 24.5063 339.456 23.4822 338.431 22.4581 336.764 21.7885 334.453 21.4734Z" fill="#FFFFFF" fill-rule="evenodd"/><text fill="#000000" fill-opacity="0" font-family="Arial,Arial_MSFontService,sans-serif" font-size="107.529" x="313.893" y="110.362">𝑲</text><path d="M495.075 9.97209 497.202 16.0378C484.913 20.0817 475.814 27.9724 469.906 39.71 463.998 51.4477 461.044 66.1919 461.044 83.9428 461.044 102.324 463.998 117.475 469.906 129.397 475.814 141.318 484.834 149.301 496.966 153.344L495.075 159.41C479.687 155.366 467.897 146.662 459.705 133.296 451.512 119.93 447.416 103.742 447.416 84.7306 447.416 65.7718 451.525 49.5833 459.744 36.1651 467.963 22.7469 479.74 14.0159 495.075 9.97209Z" fill="#FFFFFF" fill-rule="evenodd"/><text fill="#000000" fill-opacity="0" font-family="Arial,Arial_MSFontService,sans-serif" font-size="149.438" x="447.416" y="140.73">(</text><path d="M518.827 45.6576 578.854 45.6576 581.612 50.8569 546.005 95.6804C540.175 103.033 534.792 109.387 529.856 114.744L530.407 115.453 545.296 115.453C547.817 115.453 549.983 115.007 551.795 114.114 553.607 113.221 555.379 111.593 557.112 109.23 558.845 106.867 560.657 103.532 562.548 99.2253L570.898 99.2253 565.62 123.803 504.962 123.803 502.205 118.604 537.103 74.6472C542.88 67.3473 548.499 60.7039 553.961 54.7169L553.41 54.0079 538.6 54.0079C536.604 54.0079 534.792 54.4018 533.164 55.1895 531.536 55.9773 529.921 57.3296 528.32 59.2465 526.718 61.1634 524.709 64.3538 522.293 68.8178L513.864 68.8178Z" fill="#FFFFFF" fill-rule="evenodd"/><text fill="#000000" fill-opacity="0" font-family="Arial,Arial_MSFontService,sans-serif" font-size="78.1458" x="502.205" y="114.035">𝒛</text><path d="M588.69 9.97209C604.025 14.0159 615.802 22.7469 624.021 36.1651 632.24 49.5833 636.349 65.7718 636.349 84.7306 636.349 103.742 632.253 119.93 624.06 133.296 615.867 146.662 604.077 155.366 588.69 159.41L586.799 153.344C598.931 149.301 607.95 141.318 613.859 129.397 619.767 117.475 622.721 102.324 622.721 83.9428 622.721 66.1919 619.78 51.4477 613.898 39.71 608.016 27.9724 598.904 20.0817 586.563 16.0378Z" fill="#FFFFFF" fill-rule="evenodd"/><text fill="#000000" fill-opacity="0" font-family="Arial,Arial_MSFontService,sans-serif" font-size="149.438" x="586.563" y="140.73">)</text></g></svg>