<svg width="960" height="720" xmlns="http://www.w3.org/2000/svg" xmlns:xlink="http://www.w3.org/1999/xlink" overflow="hidden"><g><rect x="0" y="0" width="960" height="720"/><path d="M247.002 382.334C242.525 382.334 238.995 384.304 236.409 388.245 233.824 392.186 231.964 398.049 230.829 405.836 229.694 413.623 229.127 423.758 229.127 436.243 229.127 450.114 229.742 461.148 230.971 469.344 232.201 477.541 234.14 483.578 236.788 487.456 239.436 491.334 242.967 493.272 247.38 493.272 249.776 493.272 251.873 492.689 253.67 491.523 255.467 490.356 257.074 488.528 258.493 486.037 259.912 483.547 261.125 480.237 262.134 476.107 263.143 471.977 263.868 466.838 264.31 460.691 264.751 454.543 264.972 447.686 264.972 440.12 264.972 428.834 264.546 419.345 263.695 411.653 262.844 403.96 261.63 398.034 260.054 393.872 258.477 389.711 256.617 386.747 254.474 384.982 252.33 383.217 249.839 382.334 247.002 382.334ZM370.001 371.741 382.107 371.741C381.728 377.794 381.539 386.18 381.539 396.899L381.539 475.965C381.539 479.622 381.744 482.38 382.154 484.24 382.564 486.1 383.289 487.614 384.329 488.78 385.369 489.946 386.867 490.861 388.821 491.523 390.776 492.185 393.235 492.689 396.198 493.036 399.162 493.383 403.071 493.619 407.926 493.745L407.926 502.352 326.306 502.352 326.306 493.745C333.305 493.43 338.302 493.004 341.297 492.469 344.292 491.933 346.577 491.129 348.153 490.057 349.73 488.985 350.88 487.472 351.605 485.517 352.331 483.562 352.693 480.378 352.693 475.965L352.693 407.586C352.693 405.001 352.204 403.141 351.227 402.006 350.25 400.871 348.91 400.303 347.208 400.303 345.631 400.303 343.409 401.028 340.54 402.479 337.671 403.929 332.958 406.892 326.401 411.369L320.632 401.344ZM247.569 371.741C263.08 371.741 274.65 377.022 282.279 387.583 289.908 398.144 293.723 414.301 293.723 436.053 293.723 458.374 289.672 475.256 281.57 486.699 273.468 498.143 261.567 503.865 245.867 503.865 230.356 503.865 218.897 498.49 211.488 487.74 204.08 476.989 200.376 460.738 200.376 438.985 200.376 417.17 204.506 400.508 212.765 389.001 221.025 377.495 232.626 371.741 247.569 371.741ZM130.624 371.741C139.892 371.741 147.458 372.986 153.322 375.477 159.186 377.967 163.426 381.341 166.043 385.597 168.659 389.853 169.968 394.818 169.968 400.493 169.968 405.474 169.038 410.108 167.178 414.395 165.318 418.683 162.102 423.569 157.531 429.055 152.96 434.54 145.252 442.39 134.407 452.604 131.065 455.757 127.077 459.903 122.443 465.041 117.809 470.18 114.136 474.578 111.425 478.235L111.425 479.18 144.999 479.18C149.098 479.18 152.156 478.881 154.173 478.282 156.191 477.683 157.783 476.643 158.949 475.161 160.116 473.679 161.077 471.457 161.834 468.493L172.71 468.493 170.535 502.352 83.9028 502.352 83.9028 496.11C88.7577 484.95 98.6883 470.574 113.694 452.983 120.504 444.975 125.69 438.386 129.252 433.216 132.815 428.046 135.479 423.159 137.244 418.557 139.01 413.954 139.892 409.194 139.892 404.276 139.892 397.34 138.348 391.902 135.258 387.961 132.168 384.02 127.944 382.05 122.585 382.05 112.307 382.05 105.718 389.459 102.818 404.276L85.7943 404.276 85.7943 381.955C96.0717 377.794 104.363 375.051 110.668 373.727 116.973 372.403 123.625 371.741 130.624 371.741ZM508.037 367.012 518.441 367.012 516.549 397.182 458.479 397.182 458.479 431.23C462.262 430.095 466.124 429.26 470.064 428.724 474.005 428.188 478.844 427.92 484.582 427.92 492.4 427.92 499.257 429.37 505.152 432.27 511.048 435.171 515.619 439.379 518.866 444.896 522.113 450.413 523.737 456.892 523.737 464.332 523.737 477.131 519.497 486.92 511.016 493.698 502.536 500.476 490.351 503.865 474.462 503.865 467.842 503.865 461.095 503.203 454.223 501.879 447.35 500.555 441.455 498.758 436.537 496.488L436.537 472.844 453.655 472.844C455.232 479.716 457.754 484.839 461.222 488.213 464.689 491.586 469.166 493.272 474.651 493.272 481.524 493.272 486.6 491.144 489.878 486.888 493.157 482.633 494.796 476.059 494.796 467.169 494.796 458.405 492.684 451.722 488.46 447.119 484.235 442.516 478.119 440.215 470.112 440.215 467.022 440.215 463.696 440.499 460.134 441.066 456.572 441.633 453.403 442.327 450.629 443.147L442.117 437.85 442.117 373.254 498.012 373.254C501.354 373.254 503.608 372.845 504.774 372.025 505.941 371.205 507.028 369.534 508.037 367.012Z" fill="#FFFFFF" fill-rule="evenodd"/><text fill="#000000" fill-opacity="0" font-family="Arial,Arial_MSFontService,sans-serif" font-size="136.853" x="83.9028" y="486.758">𝟐𝟎𝟏𝟓</text><path d="M666.531 269.28C681.3 269.28 695.811 271.396 710.062 275.628L701.77 313.459 684.798 313.459C684.539 305.772 683.762 299.985 682.466 296.098 681.171 292.211 679.141 289.296 676.377 287.353 673.613 285.41 669.856 284.438 665.106 284.438 657.851 284.438 650.682 287.288 643.599 292.989 636.517 298.689 629.974 307.305 623.971 318.835 617.969 330.366 613.132 343.991 609.461 359.711 605.79 375.43 603.955 389.595 603.955 402.206 603.955 409.461 604.624 415.464 605.963 420.214 607.302 424.964 609.634 428.635 612.959 431.226 616.284 433.818 620.884 435.113 626.757 435.113 635.739 435.113 643.189 432.867 649.105 428.376 655.022 423.885 660.355 416.155 665.106 405.185L682.078 405.185 673.786 443.405C665.408 445.823 657.073 447.572 648.781 448.652 640.49 449.732 631.594 450.271 622.093 450.271 603.696 450.271 589.574 445.24 579.727 435.178 569.881 425.116 564.958 410.627 564.958 391.711 564.958 384.543 565.735 376.294 567.29 366.966 569.795 352.196 573.941 338.55 579.727 326.026 585.514 313.502 592.791 302.986 601.558 294.479 610.325 285.971 620.171 279.644 631.097 275.499 642.023 271.353 653.834 269.28 666.531 269.28Z" fill="#FFFFFF" fill-rule="evenodd"/><text fill="#000000" fill-opacity="0" font-family="Arial,Arial_MSFontService,sans-serif" font-size="180.992" x="564.958" y="427.647">𝑪</text><path d="M748.488 407.018C753.721 407.018 757.899 408.484 761.02 411.416 764.141 414.348 765.701 418.21 765.701 423.002 765.701 424.578 765.512 426.091 765.134 427.542L766.269 428.109C772.006 420.858 777.571 415.53 782.961 412.125 788.352 408.721 794.61 407.018 801.735 407.018 808.04 407.018 813.005 408.752 816.631 412.22 820.256 415.688 822.164 420.48 822.353 426.596 827.586 419.912 832.867 414.979 838.194 411.794 843.522 408.61 849.559 407.018 856.306 407.018 862.674 407.018 867.671 408.815 871.296 412.409 874.922 416.003 876.734 421.016 876.734 427.447 876.734 429.338 876.577 431.64 876.262 434.351 875.946 437.062 875.473 439.647 874.843 442.106L867.182 472.56C866.489 475.208 866.047 477.257 865.858 478.708 865.669 480.158 865.574 481.797 865.574 483.626 865.574 486.085 865.984 487.787 866.804 488.733 867.624 489.678 868.79 490.151 870.303 490.151 872.132 490.151 874.181 489.284 876.451 487.551 878.721 485.817 881.4 483.184 884.49 479.653L891.299 486.463C885.12 492.768 879.587 497.245 874.701 499.893 869.815 502.541 864.439 503.865 858.576 503.865 852.081 503.865 847.258 502.257 844.105 499.042 840.953 495.826 839.377 490.908 839.377 484.288 839.377 482.207 839.597 479.669 840.039 476.674 840.48 473.679 841.11 470.574 841.93 467.358L846.281 450.902C847.289 447.182 848.188 443.257 848.976 439.127 849.764 434.997 850.158 431.797 850.158 429.528 850.158 423.727 847.888 420.827 843.349 420.827 840.638 420.827 837.327 422.56 833.418 426.028 829.509 429.496 826.278 433.295 823.724 437.425 821.171 441.555 819.2 447.024 817.813 453.834L807.41 502.352 780.172 502.352 793.98 442.201C794.673 439.301 795.146 436.92 795.398 435.06 795.651 433.2 795.777 431.577 795.777 430.19 795.777 426.911 795.209 424.531 794.074 423.049 792.939 421.567 791.142 420.827 788.683 420.827 785.783 420.827 782.363 422.624 778.422 426.217 774.481 429.811 771.297 433.594 768.87 437.567 766.442 441.539 764.503 446.961 763.053 453.834L752.461 502.352 725.317 502.352 740.544 436.621C741.49 432.523 741.962 429.402 741.962 427.258 741.962 425.177 741.616 423.569 740.922 422.434 740.229 421.299 739.031 420.732 737.328 420.732 735.374 420.732 733.261 421.615 730.992 423.38 728.722 425.146 726.074 427.762 723.047 431.23L716.238 424.42C722.543 417.989 728.138 413.481 733.025 410.896 737.911 408.311 743.066 407.018 748.488 407.018Z" fill="#FFFFFF" fill-rule="evenodd"/><text fill="#000000" fill-opacity="0" font-family="Arial,Arial_MSFontService,sans-serif" font-size="96.8466" x="716.238" y="491.759">𝒎</text></g></svg>