<svg width="960" height="720" xmlns="http://www.w3.org/2000/svg" xmlns:xlink="http://www.w3.org/1999/xlink" overflow="hidden"><g><rect x="0" y="0" width="960" height="720"/><path d="M48.3373 209.902C52.7818 209.902 56.1707 210.569 58.504 211.902 60.8373 213.236 62.754 215.555 64.254 218.861 65.754 222.166 67.1707 227.458 68.504 234.736L69.3373 234.736C73.4485 228.958 76.6429 224.611 78.9207 221.694 81.1985 218.777 83.3096 216.444 85.254 214.694 87.1985 212.944 89.0874 211.708 90.9207 210.986 92.754 210.263 94.9207 209.902 97.4207 209.902 100.198 209.902 103.004 210.402 105.837 211.402L101.921 229.402 94.4207 229.402C94.1429 227.069 93.1151 225.902 91.3374 225.902 90.5596 225.902 89.7401 226.097 88.879 226.486 88.0179 226.875 86.879 227.75 85.4624 229.111 84.0457 230.472 82.2818 232.444 80.1707 235.027 78.0596 237.611 74.8929 241.541 70.6707 246.819 72.6151 258.541 74.2124 266.944 75.4624 272.027 76.7124 277.111 78.004 280.402 79.3374 281.902 80.1151 282.736 81.0596 283.152 82.1707 283.152 83.5596 283.152 84.8512 282.611 86.0457 281.527 87.2401 280.444 88.7818 278.013 90.6707 274.236L98.254 277.736C95.0318 283.625 91.379 288.013 87.2957 290.902 83.2124 293.791 78.4207 295.236 72.9207 295.236 69.5318 295.236 66.8235 294.805 64.7957 293.944 62.7679 293.083 61.0457 291.652 59.629 289.652 58.2123 287.652 56.9623 284.833 55.879 281.194 54.7957 277.555 53.7818 272.791 52.8373 266.902L52.004 266.902C47.2818 273.68 43.504 278.847 40.6707 282.402 37.8374 285.958 35.4068 288.625 33.379 290.402 31.3512 292.18 29.4068 293.43 27.5457 294.152 25.6846 294.875 23.4485 295.236 20.8374 295.236 19.6151 295.236 18.129 295.083 16.379 294.777 14.629 294.472 13.3096 294.152 12.4207 293.819L16.3374 275.736 23.8374 275.736C23.8929 276.902 24.1846 277.777 24.7124 278.361 25.2401 278.944 25.9207 279.236 26.754 279.236 27.754 279.236 28.6846 279.027 29.5457 278.611 30.4068 278.194 31.6012 277.263 33.129 275.819 34.6568 274.375 36.5874 272.25 38.9207 269.444 41.254 266.638 45.1985 261.708 50.754 254.652 49.5873 248.097 48.4901 242.444 47.4623 237.694 46.4346 232.944 45.504 229.5 44.6707 227.361 43.8373 225.222 43.0457 223.791 42.2957 223.069 41.5457 222.347 40.6985 221.986 39.754 221.986 38.6429 221.986 37.6707 222.277 36.8374 222.861 36.004 223.444 35.129 224.388 34.2124 225.694 33.2957 227 32.3096 228.736 31.254 230.902L23.6707 227.402C26.8929 221.513 30.5179 217.125 34.5457 214.236 38.5735 211.347 43.1707 209.902 48.3373 209.902Z" fill="#11C1FF" fill-rule="evenodd"/><text fill="#000000" fill-opacity="0" font-family="Arial,Arial_MSFontService,sans-serif" font-size="85.3333" x="12.4207" y="284.569">𝒙</text><path d="M145.407 147.392C151.369 147.392 156.236 148.192 160.007 149.794 163.779 151.396 166.506 153.566 168.189 156.304 169.872 159.041 170.714 162.235 170.714 165.885 170.714 169.089 170.116 172.07 168.919 174.827 167.723 177.585 165.655 180.728 162.714 184.257 159.774 187.785 154.816 192.834 147.841 199.404 145.691 201.432 143.126 204.098 140.145 207.404 137.164 210.709 134.802 213.538 133.058 215.89L133.058 216.498 154.654 216.498C157.29 216.498 159.257 216.306 160.555 215.92 161.853 215.535 162.877 214.866 163.627 213.913 164.377 212.96 164.996 211.53 165.482 209.624L172.478 209.624 171.079 231.402 115.356 231.402 115.356 227.387C118.478 220.209 124.866 210.962 134.518 199.647 138.898 194.497 142.234 190.259 144.525 186.933 146.817 183.608 148.53 180.465 149.666 177.504 150.801 174.543 151.369 171.482 151.369 168.318 151.369 163.857 150.375 160.359 148.388 157.824 146.401 155.29 143.684 154.022 140.237 154.022 133.626 154.022 129.388 158.788 127.522 168.318L116.572 168.318 116.572 153.962C123.183 151.285 128.516 149.521 132.572 148.669 136.627 147.817 140.906 147.392 145.407 147.392Z" fill="#FFFFFF" fill-rule="evenodd"/><text fill="#000000" fill-opacity="0" font-family="Arial,Arial_MSFontService,sans-serif" font-size="84.0108" x="115.356" y="220.901">𝟐</text><path d="M285.767 191.569 297.601 191.569 297.601 239.569 343.017 239.569 343.017 250.652 297.601 250.652 297.601 298.652 285.767 298.652 285.767 250.652 240.351 250.652 240.351 239.569 285.767 239.569Z" fill="#FFFFFF" fill-rule="evenodd"/><text fill="#000000" fill-opacity="0" font-family="Arial,Arial_MSFontService,sans-serif" font-size="107.083" x="240.351" y="285.267">+</text><path d="M425.277 209.902C429.555 209.902 433.013 210.527 435.652 211.777 438.291 213.027 440.388 214.75 441.944 216.944 443.5 219.138 444.75 221.93 445.694 225.319 446.472 227.986 447.388 232.68 448.444 239.402 450.166 250.347 451.638 261.097 452.861 271.652 459.027 262.819 463.763 254.208 467.069 245.819 470.375 237.43 472.027 229.93 472.027 223.319 472.027 221.208 471.527 219.611 470.527 218.527 469.527 217.444 467.777 216.847 465.277 216.736L466.444 211.236 489.944 211.236 492.861 216.736C491.75 220.569 490.027 225.208 487.694 230.652 484.25 238.652 479.611 247.625 473.777 257.569 468.5 266.513 462.75 275.458 456.527 284.402 449.25 294.847 442.916 303.277 437.527 309.694 432.138 316.111 427.472 320.847 423.527 323.902 420.416 326.236 417.444 327.888 414.611 328.861 411.777 329.833 408.777 330.319 405.611 330.319 401.5 330.319 397.611 329.708 393.944 328.486L398.111 309.652 406.861 309.652C406.916 311.986 407.263 313.708 407.902 314.819 408.541 315.93 409.694 316.486 411.361 316.486 412.694 316.486 413.944 316.25 415.111 315.777 416.277 315.305 417.75 314.375 419.527 312.986 421.305 311.597 423.541 309.333 426.236 306.194 428.93 303.055 431.972 299.263 435.361 294.819 434.25 288.041 432.819 280.055 431.069 270.861 429.319 261.666 427.611 253.305 425.944 245.777 424.277 238.25 423.055 233.152 422.277 230.486 421.5 227.819 420.75 225.916 420.027 224.777 419.305 223.638 418.638 222.888 418.027 222.527 417.416 222.166 416.777 221.986 416.111 221.986 414.722 221.986 413.444 222.555 412.277 223.694 411.111 224.833 409.583 227.236 407.694 230.902L400.111 227.402C403.333 221.569 407 217.194 411.111 214.277 415.222 211.361 419.944 209.902 425.277 209.902Z" fill="#FFC000" fill-rule="evenodd"/><text fill="#000000" fill-opacity="0" font-family="Arial,Arial_MSFontService,sans-serif" font-size="120.417" x="393.944" y="315.267">𝒚</text><path d="M532.347 147.392C538.309 147.392 543.176 148.192 546.947 149.794 550.719 151.396 553.446 153.566 555.129 156.304 556.812 159.041 557.654 162.235 557.654 165.885 557.654 169.089 557.056 172.07 555.859 174.827 554.663 177.585 552.595 180.728 549.654 184.257 546.714 187.785 541.756 192.834 534.781 199.404 532.631 201.432 530.066 204.098 527.085 207.404 524.104 210.709 521.742 213.538 519.998 215.89L519.998 216.498 541.594 216.498C544.23 216.498 546.197 216.306 547.495 215.92 548.793 215.535 549.817 214.866 550.567 213.913 551.317 212.96 551.936 211.53 552.422 209.624L559.418 209.624 558.019 231.402 502.296 231.402 502.296 227.387C505.418 220.209 511.806 210.962 521.458 199.647 525.838 194.497 529.174 190.259 531.465 186.933 533.757 183.608 535.47 180.465 536.606 177.504 537.741 174.543 538.309 171.482 538.309 168.318 538.309 163.857 537.315 160.359 535.328 157.824 533.341 155.29 530.624 154.022 527.177 154.022 520.566 154.022 516.328 158.788 514.462 168.318L503.512 168.318 503.512 153.962C510.123 151.285 515.456 149.521 519.512 148.669 523.567 147.817 527.846 147.392 532.347 147.392Z" fill="#FFFFFF" fill-rule="evenodd"/><text fill="#000000" fill-opacity="0" font-family="Arial,Arial_MSFontService,sans-serif" font-size="84.0108" x="502.296" y="220.901">𝟐</text><path d="M672.707 191.569 684.541 191.569 684.541 239.569 729.957 239.569 729.957 250.652 684.541 250.652 684.541 298.652 672.707 298.652 672.707 250.652 627.291 250.652 627.291 239.569 672.707 239.569Z" fill="#FFFFFF" fill-rule="evenodd"/><text fill="#000000" fill-opacity="0" font-family="Arial,Arial_MSFontService,sans-serif" font-size="107.083" x="627.291" y="285.267">+</text><path d="M799.967 211.236 863.467 211.236 866.384 216.736 828.717 264.152C822.551 271.93 816.856 278.652 811.634 284.319L812.217 285.069 827.967 285.069C830.634 285.069 832.926 284.597 834.842 283.652 836.759 282.708 838.634 280.986 840.467 278.486 842.301 275.986 844.217 272.458 846.217 267.902L855.051 267.902 849.467 293.902 785.301 293.902 782.384 288.402 819.301 241.902C825.412 234.18 831.356 227.152 837.134 220.819L836.551 220.069 820.884 220.069C818.773 220.069 816.856 220.486 815.134 221.319 813.412 222.152 811.703 223.583 810.009 225.611 808.315 227.638 806.19 231.013 803.634 235.736L794.717 235.736Z" fill="#92D050" fill-rule="evenodd"/><text fill="#000000" fill-opacity="0" font-family="Arial,Arial_MSFontService,sans-serif" font-size="82.6667" x="782.384" y="283.569">𝒛</text><path d="M905.454 147.392C911.416 147.392 916.282 148.192 920.054 149.794 923.826 151.396 926.553 153.566 928.236 156.304 929.919 159.041 930.761 162.235 930.761 165.885 930.761 169.089 930.162 172.07 928.966 174.827 927.77 177.585 925.701 180.728 922.761 184.257 919.821 187.785 914.863 192.834 907.887 199.404 905.738 201.432 903.173 204.098 900.192 207.404 897.211 210.709 894.849 213.538 893.105 215.89L893.105 216.498 914.701 216.498C917.337 216.498 919.304 216.306 920.602 215.92 921.899 215.535 922.923 214.866 923.674 213.913 924.424 212.96 925.042 211.53 925.529 209.624L932.525 209.624 931.126 231.402 875.402 231.402 875.402 227.387C878.525 220.209 884.913 210.962 894.565 199.647 898.945 194.497 902.281 190.259 904.572 186.933 906.863 183.608 908.577 180.465 909.712 177.504 910.848 174.543 911.416 171.482 911.416 168.318 911.416 163.857 910.422 160.359 908.435 157.824 906.448 155.29 903.73 154.022 900.283 154.022 893.673 154.022 889.435 158.788 887.569 168.318L876.619 168.318 876.619 153.962C883.23 151.285 888.563 149.521 892.618 148.669 896.674 147.817 900.952 147.392 905.454 147.392Z" fill="#FFFFFF" fill-rule="evenodd"/><text fill="#000000" fill-opacity="0" font-family="Arial,Arial_MSFontService,sans-serif" font-size="84.0108" x="875.402" y="220.901">𝟐</text><path d="M438.13 483 540.797 483 540.797 494.083 438.13 494.083ZM438.13 448.417 540.797 448.417 540.797 459.5 438.13 459.5Z" fill="#FFFFFF" fill-rule="evenodd"/><text fill="#000000" fill-opacity="0" font-family="Arial,Arial_MSFontService,sans-serif" font-size="45.6667" x="438.13" y="488.375">=</text><path d="M639.037 436C643.481 436 646.87 436.667 649.203 438 651.537 439.333 653.453 441.653 654.953 444.958 656.453 448.264 657.87 453.556 659.203 460.833L660.037 460.833C664.148 455.056 667.342 450.708 669.62 447.792 671.898 444.875 674.009 442.542 675.953 440.792 677.898 439.042 679.787 437.806 681.62 437.083 683.453 436.361 685.62 436 688.12 436 690.898 436 693.703 436.5 696.537 437.5L692.62 455.5 685.12 455.5C684.842 453.167 683.814 452 682.037 452 681.259 452 680.439 452.194 679.578 452.583 678.717 452.972 677.578 453.847 676.162 455.208 674.745 456.569 672.981 458.542 670.87 461.125 668.759 463.708 665.592 467.639 661.37 472.917 663.314 484.639 664.912 493.042 666.162 498.125 667.412 503.208 668.703 506.5 670.037 508 670.814 508.833 671.759 509.25 672.87 509.25 674.259 509.25 675.551 508.708 676.745 507.625 677.939 506.542 679.481 504.111 681.37 500.333L688.953 503.833C685.731 509.722 682.078 514.111 677.995 517 673.912 519.889 669.12 521.333 663.62 521.333 660.231 521.333 657.523 520.903 655.495 520.042 653.467 519.181 651.745 517.75 650.328 515.75 648.912 513.75 647.662 510.931 646.578 507.292 645.495 503.653 644.481 498.889 643.537 493L642.703 493C637.981 499.778 634.203 504.944 631.37 508.5 628.537 512.056 626.106 514.722 624.078 516.5 622.051 518.278 620.106 519.528 618.245 520.25 616.384 520.972 614.148 521.333 611.537 521.333 610.314 521.333 608.828 521.181 607.078 520.875 605.328 520.569 604.009 520.25 603.12 519.917L607.037 501.833 614.537 501.833C614.592 503 614.884 503.875 615.412 504.458 615.939 505.042 616.62 505.333 617.453 505.333 618.453 505.333 619.384 505.125 620.245 504.708 621.106 504.292 622.301 503.361 623.828 501.917 625.356 500.472 627.287 498.347 629.62 495.542 631.953 492.736 635.898 487.806 641.453 480.75 640.287 474.194 639.189 468.542 638.162 463.792 637.134 459.042 636.203 455.597 635.37 453.458 634.537 451.319 633.745 449.889 632.995 449.167 632.245 448.444 631.398 448.083 630.453 448.083 629.342 448.083 628.37 448.375 627.537 448.958 626.703 449.542 625.828 450.486 624.912 451.792 623.995 453.097 623.009 454.833 621.953 457L614.37 453.5C617.592 447.611 621.217 443.222 625.245 440.333 629.273 437.444 633.87 436 639.037 436Z" fill="#11C1FF" fill-rule="evenodd"/><text fill="#000000" fill-opacity="0" font-family="Arial,Arial_MSFontService,sans-serif" font-size="85.3333" x="603.12" y="510.667">𝒙</text><path d="M731.037 436C735.314 436 738.773 436.625 741.412 437.875 744.051 439.125 746.148 440.847 747.703 443.042 749.259 445.236 750.509 448.028 751.453 451.417 752.231 454.083 753.148 458.778 754.203 465.5 755.926 476.444 757.398 487.194 758.62 497.75 764.787 488.917 769.523 480.306 772.828 471.917 776.134 463.528 777.787 456.028 777.787 449.417 777.787 447.306 777.287 445.708 776.287 444.625 775.287 443.542 773.537 442.944 771.037 442.833L772.203 437.333 795.703 437.333 798.62 442.833C797.509 446.667 795.787 451.306 793.453 456.75 790.009 464.75 785.37 473.722 779.537 483.667 774.259 492.611 768.509 501.556 762.287 510.5 755.009 520.944 748.676 529.375 743.287 535.792 737.898 542.208 733.231 546.944 729.287 550 726.176 552.333 723.203 553.986 720.37 554.958 717.537 555.931 714.537 556.417 711.37 556.417 707.259 556.417 703.37 555.806 699.703 554.583L703.87 535.75 712.62 535.75C712.676 538.083 713.023 539.806 713.662 540.917 714.301 542.028 715.453 542.583 717.12 542.583 718.453 542.583 719.703 542.347 720.87 541.875 722.037 541.403 723.509 540.472 725.287 539.083 727.064 537.694 729.301 535.431 731.995 532.292 734.689 529.153 737.731 525.361 741.12 520.917 740.009 514.139 738.578 506.153 736.828 496.958 735.078 487.764 733.37 479.403 731.703 471.875 730.037 464.347 728.814 459.25 728.037 456.583 727.259 453.917 726.509 452.014 725.787 450.875 725.064 449.736 724.398 448.986 723.787 448.625 723.176 448.264 722.537 448.083 721.87 448.083 720.481 448.083 719.203 448.653 718.037 449.792 716.87 450.931 715.342 453.333 713.453 457L705.87 453.5C709.092 447.667 712.759 443.292 716.87 440.375 720.981 437.458 725.703 436 731.037 436Z" fill="#FFC000" fill-rule="evenodd"/><text fill="#000000" fill-opacity="0" font-family="Arial,Arial_MSFontService,sans-serif" font-size="120.417" x="699.703" y="541.365">𝒚</text><path d="M820.787 437.333 884.287 437.333 887.203 442.833 849.537 490.25C843.37 498.028 837.676 504.75 832.453 510.417L833.037 511.167 848.787 511.167C851.453 511.167 853.745 510.694 855.662 509.75 857.578 508.806 859.453 507.083 861.287 504.583 863.12 502.083 865.037 498.556 867.037 494L875.87 494 870.287 520 806.12 520 803.203 514.5 840.12 468C846.231 460.278 852.176 453.25 857.953 446.917L857.37 446.167 841.703 446.167C839.592 446.167 837.676 446.583 835.953 447.417 834.231 448.25 832.523 449.681 830.828 451.708 829.134 453.736 827.009 457.111 824.453 461.833L815.537 461.833Z" fill="#92D050" fill-rule="evenodd"/><text fill="#000000" fill-opacity="0" font-family="Arial,Arial_MSFontService,sans-serif" font-size="82.6667" x="803.203" y="509.667">𝒛</text></g></svg>