<svg width="960" height="720" xmlns="http://www.w3.org/2000/svg" xmlns:xlink="http://www.w3.org/1999/xlink" overflow="hidden"><g><rect x="0" y="0" width="960" height="720"/><path d="M168 704C194.04 501.011 231.421 264.673 310.569 233.102 389.717 201.531 556.37 515.241 642.891 514.574 735.53 513.859 775.217 246.442 779 25" stroke="#FF0000" stroke-width="20" stroke-miterlimit="8" fill="none" fill-rule="evenodd"/><path d="M0 0 880 218.227" stroke="#FFFFFF" stroke-width="16" stroke-miterlimit="8" fill="none" fill-rule="evenodd" transform="matrix(1 0 0 -1 24 290.227)"/><path d="M0 0 880 218.227" stroke="#FFFFFF" stroke-width="16" stroke-miterlimit="8" fill="none" fill-rule="evenodd" transform="matrix(1 0 0 -1 40 684.227)"/><path d="M181 25 778.334 703.667" stroke="#FFFFFF" stroke-width="16" stroke-miterlimit="8" fill="none" fill-rule="evenodd"/><path d="M0 0 213.229 678.667" stroke="#FFFFFF" stroke-width="16" stroke-miterlimit="8" fill="none" fill-rule="evenodd" transform="matrix(-1 0 0 1 870.229 16)"/><path d="M0 0 213.229 678.667" stroke="#FFFFFF" stroke-width="16" stroke-miterlimit="8" fill="none" fill-rule="evenodd" transform="matrix(-1 0 0 1 322.229 25)"/><path d="M690.149 599.5 345.5 210.104 848.5 88.5001 690.149 599.5Z" stroke="#FFC000" stroke-width="21.3333" stroke-miterlimit="8" fill="#FFC000" fill-rule="evenodd" fill-opacity="0.529412"/><path d="M255.275 232.868 283.836 140.476 351.767 208.654 255.275 232.868Z" stroke="#11C1FF" stroke-width="21.3333" stroke-miterlimit="8" fill="#00B0F0" fill-rule="evenodd" fill-opacity="0.529412"/></g></svg>