<svg width="960" height="720" xmlns="http://www.w3.org/2000/svg" xmlns:xlink="http://www.w3.org/1999/xlink" overflow="hidden"><g><rect x="0" y="0" width="960" height="720"/><path d="M134.776 83.7546 158.682 83.7546 158.682 84.1071 184.338 84.1071 221.338 84.1071 258.338 84.1071 258.338 96.1071 221.338 96.1071 184.338 96.1071 158.682 96.1071 158.682 96.2233 141.713 96.2233 91.2757 268.536 82.1819 268.536 43.3694 185.098 27.5257 192.13 24.6194 185.098 55.3694 171.036 88.4632 243.786Z" fill="#FFFFFF" fill-rule="evenodd"/><path d="M190.65 140.607C195.65 140.607 199.463 141.357 202.088 142.857 204.713 144.357 206.869 146.966 208.557 150.685 210.244 154.404 211.838 160.357 213.338 168.545L214.275 168.545C218.9 162.045 222.494 157.154 225.057 153.873 227.619 150.591 229.994 147.966 232.182 145.998 234.369 144.029 236.494 142.638 238.557 141.826 240.619 141.013 243.057 140.607 245.869 140.607 248.994 140.607 252.15 141.17 255.338 142.295L250.932 162.545 242.494 162.545C242.182 159.92 241.025 158.607 239.025 158.607 238.15 158.607 237.228 158.826 236.26 159.263 235.291 159.701 234.01 160.685 232.416 162.216 230.822 163.748 228.838 165.966 226.463 168.873 224.088 171.779 220.525 176.201 215.775 182.138 217.963 195.326 219.76 204.779 221.166 210.498 222.572 216.216 224.025 219.92 225.525 221.607 226.4 222.545 227.463 223.013 228.713 223.013 230.275 223.013 231.728 222.404 233.072 221.185 234.416 219.966 236.15 217.232 238.275 212.982L246.807 216.92C243.182 223.545 239.072 228.482 234.478 231.732 229.885 234.982 224.494 236.607 218.307 236.607 214.494 236.607 211.447 236.123 209.166 235.154 206.885 234.185 204.947 232.576 203.353 230.326 201.76 228.076 200.353 224.904 199.135 220.81 197.916 216.716 196.775 211.357 195.713 204.732L194.775 204.732C189.463 212.357 185.213 218.17 182.025 222.17 178.838 226.17 176.103 229.17 173.822 231.17 171.541 233.17 169.353 234.576 167.26 235.388 165.166 236.201 162.65 236.607 159.713 236.607 158.338 236.607 156.666 236.435 154.697 236.091 152.728 235.748 151.244 235.388 150.244 235.013L154.65 214.67 163.088 214.67C163.15 215.982 163.478 216.966 164.072 217.623 164.666 218.279 165.432 218.607 166.369 218.607 167.494 218.607 168.541 218.373 169.51 217.904 170.478 217.435 171.822 216.388 173.541 214.763 175.26 213.138 177.432 210.748 180.057 207.591 182.682 204.435 187.119 198.888 193.369 190.951 192.057 183.576 190.822 177.216 189.666 171.873 188.51 166.529 187.463 162.654 186.525 160.248 185.588 157.841 184.697 156.232 183.853 155.42 183.01 154.607 182.057 154.201 180.994 154.201 179.744 154.201 178.65 154.529 177.713 155.185 176.775 155.841 175.791 156.904 174.76 158.373 173.728 159.841 172.619 161.795 171.432 164.232L162.9 160.295C166.525 153.67 170.603 148.732 175.135 145.482 179.666 142.232 184.838 140.607 190.65 140.607Z" fill="#FFFFFF" fill-rule="evenodd"/><text fill="#000000" fill-opacity="0" font-family="Arial,Arial_MSFontService,sans-serif" font-size="96" x="150.244" y="224.607">𝒙</text><path d="M548.109 87.3531 572.015 87.3531 572.015 87.6656 599.005 87.6656 637.338 87.6656 675.672 87.6656 675.672 99.6656 637.338 99.6656 599.005 99.6656 572.015 99.6656 572.015 99.8219 555.047 99.8219 504.609 272.134 495.515 272.134 456.703 188.697 440.859 195.728 437.953 188.697 468.703 174.634 501.797 247.384Z" fill="#FFFFFF" fill-rule="evenodd"/><path d="M596.671 132.166C601.484 132.166 605.374 132.869 608.343 134.275 611.312 135.681 613.671 137.619 615.421 140.087 617.171 142.556 618.577 145.697 619.64 149.509 620.515 152.509 621.546 157.791 622.734 165.353 624.671 177.666 626.327 189.759 627.702 201.634 634.64 191.697 639.968 182.009 643.687 172.572 647.405 163.134 649.265 154.697 649.265 147.259 649.265 144.884 648.702 143.087 647.577 141.869 646.452 140.65 644.484 139.978 641.671 139.853L642.984 133.666 669.421 133.666 672.702 139.853C671.452 144.166 669.515 149.384 666.89 155.509 663.015 164.509 657.796 174.603 651.234 185.791 645.296 195.853 638.827 205.916 631.827 215.978 623.64 227.728 616.515 237.212 610.452 244.431 604.39 251.65 599.14 256.978 594.702 260.416 591.202 263.041 587.859 264.9 584.671 265.994 581.484 267.087 578.109 267.634 574.546 267.634 569.921 267.634 565.546 266.947 561.421 265.572L566.109 244.384 575.952 244.384C576.015 247.009 576.405 248.947 577.124 250.197 577.843 251.447 579.14 252.072 581.015 252.072 582.515 252.072 583.921 251.806 585.234 251.275 586.546 250.744 588.202 249.697 590.202 248.134 592.202 246.572 594.718 244.025 597.749 240.494 600.78 236.962 604.202 232.697 608.015 227.697 606.765 220.072 605.155 211.087 603.187 200.744 601.218 190.4 599.296 180.994 597.421 172.525 595.546 164.056 594.171 158.322 593.296 155.322 592.421 152.322 591.577 150.181 590.765 148.9 589.952 147.619 589.202 146.775 588.515 146.369 587.827 145.962 587.109 145.759 586.359 145.759 584.796 145.759 583.359 146.4 582.046 147.681 580.734 148.962 579.015 151.666 576.89 155.791L568.359 151.853C571.984 145.291 576.109 140.369 580.734 137.087 585.359 133.806 590.671 132.166 596.671 132.166Z" fill="#FFFFFF" fill-rule="evenodd"/><text fill="#000000" fill-opacity="0" font-family="Arial,Arial_MSFontService,sans-serif" font-size="135.469" x="561.421" y="250.701">𝒚</text><path d="M355.409 115.315 368.722 115.315 368.722 169.315 419.815 169.315 419.815 181.784 368.722 181.784 368.722 235.784 355.409 235.784 355.409 181.784 304.315 181.784 304.315 169.315 355.409 169.315Z" fill="#FFFFFF" fill-rule="evenodd"/><text fill="#000000" fill-opacity="0" font-family="Arial,Arial_MSFontService,sans-serif" font-size="120.469" x="304.315" y="220.726">+</text><path d="M65.9873 534.746 162.237 534.746 162.237 545.136 65.9873 545.136ZM65.9873 503.496 162.237 503.496 162.237 513.886 65.9873 513.886ZM162.237 416.23 162.237 427.949 78.8779 455.371 162.237 482.792 162.237 494.511 65.9873 460.839 65.9873 449.902Z" fill="#FFFFFF" fill-rule="evenodd"/><text fill="#000000" fill-opacity="0" font-family="Arial,Arial_MSFontService,sans-serif" font-size="128.906" x="65.9873" y="529.023">≦</text><path d="M250.887 402.293 261.481 402.293 244.043 481.231 245.918 481.231C248.168 481.231 250.293 480.825 252.293 480.012 254.731 479.012 257.731 477.231 261.293 474.668 266.106 471.106 269.512 468.325 271.512 466.325 273.512 464.325 274.903 462.434 275.684 460.653 276.465 458.872 276.856 457.043 276.856 455.168 276.856 453.731 276.465 452.512 275.684 451.512 274.903 450.512 273.512 449.918 271.512 449.731L273.012 443.543 306.387 443.543 308.731 449.637C304.856 453.887 299.637 458.512 293.074 463.512L271.981 479.356 281.637 513.575C282.762 517.637 283.809 520.387 284.778 521.825 285.746 523.262 287.106 523.981 288.856 523.981 290.481 523.981 292.324 523.153 294.387 521.497 296.449 519.84 298.887 517.356 301.699 514.043L308.449 520.793C302.637 527.043 297.387 531.481 292.699 534.106 288.012 536.731 283.199 538.043 278.262 538.043 272.074 538.043 267.262 536.575 263.824 533.637 260.387 530.7 257.887 525.668 256.324 518.543L251.356 496.043C251.043 494.543 250.637 493.356 250.137 492.481 249.637 491.606 248.981 490.981 248.168 490.606 247.356 490.231 246.137 490.043 244.512 490.043L242.168 490.043 231.949 536.543 205.043 536.543 228.762 430.606C230.137 424.481 230.824 420.012 230.824 417.2 230.824 415.825 230.684 414.747 230.403 413.965 230.121 413.184 229.699 412.543 229.137 412.043 228.574 411.543 227.824 411.153 226.887 410.872 225.949 410.59 224.106 410.262 221.356 409.887L222.856 403.793Z" fill="#FFFFFF" fill-rule="evenodd"/><text fill="#000000" fill-opacity="0" font-family="Arial,Arial_MSFontService,sans-serif" font-size="135.75" x="205.043" y="521.075">𝒌</text><path d="M435.38 346.852 461.63 346.852 461.63 347.194 499.255 347.194 543.505 347.194 587.755 347.194 632.005 347.194 632.005 359.194 587.755 359.194 543.505 359.194 499.255 359.194 461.63 359.194 461.63 359.321 442.88 359.321 381.942 585.258 372.849 585.258 334.036 501.821 318.192 508.852 315.286 501.821 346.036 487.758 378.474 560.133Z" fill="#FFFFFF" fill-rule="evenodd"/><path d="M598.224 442.043C603.224 442.043 607.036 442.793 609.661 444.293 612.286 445.793 614.442 448.403 616.13 452.122 617.817 455.84 619.411 461.793 620.911 469.981L621.849 469.981C626.474 463.481 630.067 458.59 632.63 455.309 635.192 452.028 637.567 449.403 639.755 447.434 641.942 445.465 644.067 444.075 646.13 443.262 648.192 442.45 650.63 442.043 653.442 442.043 656.567 442.043 659.724 442.606 662.911 443.731L658.505 463.981 650.067 463.981C649.755 461.356 648.599 460.043 646.599 460.043 645.724 460.043 644.802 460.262 643.833 460.7 642.864 461.137 641.583 462.122 639.989 463.653 638.395 465.184 636.411 467.403 634.036 470.309 631.661 473.215 628.099 477.637 623.349 483.575 625.536 496.762 627.333 506.215 628.739 511.934 630.145 517.653 631.599 521.356 633.099 523.043 633.974 523.981 635.036 524.45 636.286 524.45 637.849 524.45 639.302 523.84 640.645 522.622 641.989 521.403 643.724 518.668 645.849 514.418L654.38 518.356C650.755 524.981 646.645 529.918 642.052 533.168 637.458 536.418 632.067 538.043 625.88 538.043 622.067 538.043 619.02 537.559 616.739 536.59 614.458 535.622 612.52 534.012 610.927 531.762 609.333 529.512 607.927 526.34 606.708 522.247 605.489 518.153 604.349 512.793 603.286 506.168L602.349 506.168C597.036 513.793 592.786 519.606 589.599 523.606 586.411 527.606 583.677 530.606 581.395 532.606 579.114 534.606 576.927 536.012 574.833 536.825 572.739 537.637 570.224 538.043 567.286 538.043 565.911 538.043 564.239 537.872 562.27 537.528 560.302 537.184 558.817 536.825 557.817 536.45L562.224 516.106 570.661 516.106C570.724 517.418 571.052 518.403 571.645 519.059 572.239 519.715 573.005 520.043 573.942 520.043 575.067 520.043 576.114 519.809 577.083 519.34 578.052 518.872 579.395 517.825 581.114 516.2 582.833 514.575 585.005 512.184 587.63 509.028 590.255 505.872 594.692 500.325 600.942 492.387 599.63 485.012 598.395 478.653 597.239 473.309 596.083 467.965 595.036 464.09 594.099 461.684 593.161 459.278 592.27 457.668 591.427 456.856 590.583 456.043 589.63 455.637 588.567 455.637 587.317 455.637 586.224 455.965 585.286 456.622 584.349 457.278 583.364 458.34 582.333 459.809 581.302 461.278 580.192 463.231 579.005 465.668L570.474 461.731C574.099 455.106 578.177 450.168 582.708 446.918 587.239 443.668 592.411 442.043 598.224 442.043ZM497.005 407.075C506.192 407.075 513.692 408.309 519.505 410.778 525.317 413.247 529.52 416.59 532.114 420.809 534.708 425.028 536.005 429.95 536.005 435.575 536.005 440.512 535.083 445.106 533.239 449.356 531.395 453.606 528.208 458.45 523.677 463.887 519.145 469.325 511.505 477.106 500.755 487.231 497.442 490.356 493.489 494.465 488.895 499.559 484.302 504.653 480.661 509.012 477.974 512.637L477.974 513.575 511.255 513.575C515.317 513.575 518.349 513.278 520.349 512.684 522.349 512.09 523.927 511.059 525.083 509.59 526.239 508.122 527.192 505.918 527.942 502.981L538.724 502.981 536.567 536.543 450.692 536.543 450.692 530.356C455.505 519.293 465.349 505.043 480.224 487.606 486.974 479.668 492.114 473.137 495.645 468.012 499.177 462.887 501.817 458.043 503.567 453.481 505.317 448.918 506.192 444.2 506.192 439.325 506.192 432.45 504.661 427.059 501.599 423.153 498.536 419.247 494.349 417.293 489.036 417.293 478.849 417.293 472.317 424.637 469.442 439.325L452.567 439.325 452.567 417.2C462.755 413.075 470.974 410.356 477.224 409.043 483.474 407.731 490.067 407.075 497.005 407.075Z" fill="#FFFFFF" fill-rule="evenodd"/><text fill="#000000" fill-opacity="0" font-family="Arial,Arial_MSFontService,sans-serif" font-size="130.969" x="450.692" y="521.672">𝟐𝒙</text><path d="M735.683 421.418 748.996 421.418 748.996 475.418 800.089 475.418 800.089 487.887 748.996 487.887 748.996 541.887 735.683 541.887 735.683 487.887 684.589 487.887 684.589 475.418 735.683 475.418Z" fill="#FFFFFF" fill-rule="evenodd"/><text fill="#000000" fill-opacity="0" font-family="Arial,Arial_MSFontService,sans-serif" font-size="120.469" x="684.589" y="526.829">+</text><path d="M848.86 425.961C853.673 425.961 857.563 426.664 860.532 428.07 863.501 429.477 865.86 431.414 867.61 433.883 869.36 436.352 870.766 439.492 871.829 443.305 872.704 446.305 873.735 451.586 874.923 459.148 876.86 471.461 878.516 483.555 879.891 495.43 886.829 485.492 892.157 475.805 895.876 466.367 899.595 456.93 901.454 448.492 901.454 441.055 901.454 438.68 900.891 436.883 899.766 435.664 898.641 434.445 896.673 433.773 893.86 433.648L895.173 427.461 921.61 427.461 924.891 433.648C923.641 437.961 921.704 443.18 919.079 449.305 915.204 458.305 909.985 468.398 903.423 479.586 897.485 489.648 891.016 499.711 884.016 509.773 875.829 521.523 868.704 531.008 862.641 538.227 856.579 545.445 851.329 550.773 846.891 554.211 843.391 556.836 840.048 558.695 836.86 559.789 833.673 560.883 830.298 561.43 826.735 561.43 822.11 561.43 817.735 560.742 813.61 559.367L818.298 538.18 828.141 538.18C828.204 540.805 828.595 542.742 829.313 543.992 830.032 545.242 831.329 545.867 833.204 545.867 834.704 545.867 836.11 545.602 837.423 545.07 838.735 544.539 840.391 543.492 842.391 541.93 844.391 540.367 846.907 537.82 849.938 534.289 852.97 530.758 856.391 526.492 860.204 521.492 858.954 513.867 857.345 504.883 855.376 494.539 853.407 484.195 851.485 474.789 849.61 466.32 847.735 457.852 846.36 452.117 845.485 449.117 844.61 446.117 843.766 443.977 842.954 442.695 842.141 441.414 841.391 440.57 840.704 440.164 840.016 439.758 839.298 439.555 838.548 439.555 836.985 439.555 835.548 440.195 834.235 441.477 832.923 442.758 831.204 445.461 829.079 449.586L820.548 445.648C824.173 439.086 828.298 434.164 832.923 430.883 837.548 427.602 842.86 425.961 848.86 425.961Z" fill="#FFFFFF" fill-rule="evenodd"/><text fill="#000000" fill-opacity="0" font-family="Arial,Arial_MSFontService,sans-serif" font-size="135.469" x="813.61" y="544.496">𝒚</text><path d="M0 0 512.262 0.000104987" stroke="#FFFFFF" stroke-width="12" stroke-miterlimit="8" fill="none" fill-rule="evenodd" transform="matrix(-1 0 0 1 946.262 352)"/></g></svg>