<svg width="960" height="720" xmlns="http://www.w3.org/2000/svg" xmlns:xlink="http://www.w3.org/1999/xlink" overflow="hidden"><g><rect x="0" y="0" width="960" height="720"/><path d="M16 370 893.652 370 893.652 390 16 390ZM883.652 350 943.652 380 883.652 410Z" fill="#FFFFFF"/><path d="M10-1.50245e-06 10.0001 648.77-9.9999 648.77-10 1.50245e-06ZM30.0001 638.769 0.000104987 698.769-29.9999 638.769Z" fill="#FFFFFF" transform="matrix(1 0 0 -1 481 709.769)"/><path d="M481.5 657C329.898 657 207 532.983 207 380 207 227.017 329.898 103 481.5 103 633.102 103 756 227.017 756 380 756 532.983 633.102 657 481.5 657Z" stroke="#FFFFFF" stroke-width="20" stroke-miterlimit="8" fill="#FFC000" fill-rule="evenodd" fill-opacity="0.6"/><path d="M483.5 382C374.976 382 287 328.498 287 262.5 287 196.502 374.976 143 483.5 143 592.024 143 680 196.502 680 262.5 680 328.498 592.024 382 483.5 382Z" stroke="#FFFF00" stroke-width="20" stroke-miterlimit="8" fill="none" fill-rule="evenodd"/><path d="M370.781 470.94C368.177 470.94 366.172 470.992 364.765 471.097L345.468 558.909C347.864 559.117 349.791 559.222 351.25 559.222 357.968 559.222 363.763 557.894 368.632 555.237 373.502 552.581 377.825 548.532 381.601 543.089 385.377 537.646 388.346 531.006 390.507 523.167 392.669 515.328 393.75 507.451 393.75 499.534 393.75 494.17 393.151 489.664 391.953 486.019 390.755 482.373 389.101 479.43 386.992 477.19 384.882 474.951 382.435 473.349 379.648 472.386 376.862 471.422 373.906 470.94 370.781 470.94ZM334.609 461.8 366.25 461.8C374.843 461.8 381.718 462.269 386.875 463.206 391.562 464.039 395.846 465.472 399.726 467.503 403.606 469.534 406.666 471.774 408.906 474.222 411.77 477.242 414.023 481.032 415.664 485.589 417.304 490.146 418.125 495.498 418.125 501.644 418.125 508.571 417.343 515.211 415.781 521.565 414.218 527.92 411.914 533.792 408.867 539.183 405.82 544.573 402.174 549.209 397.929 553.089 393.685 556.969 389.427 559.99 385.156 562.151 380.885 564.313 376.067 565.901 370.703 566.917 365.338 567.933 358.984 568.44 351.64 568.44L313.125 568.44 314.218 563.284C317.187 562.451 319.375 560.992 320.781 558.909 322.187 556.826 323.515 552.972 324.765 547.347L338.984 482.894C339.661 479.821 340 476.774 340 473.753 340 471.565 339.492 469.964 338.476 468.948 337.461 467.933 335.807 467.269 333.515 466.956Z" fill="#FFFFFF" fill-rule="evenodd"/><text fill="#000000" fill-opacity="0" font-family="Arial,Arial_MSFontService,sans-serif" font-size="106.641" x="313.125" y="555.11">𝑫</text><path d="M755.667 67.8536C764.573 67.8536 773.323 69.1297 781.917 71.6818L776.917 94.4943 766.682 94.4943C766.526 89.8588 766.057 86.3693 765.276 84.0255 764.495 81.6818 763.271 79.924 761.604 78.7521 759.937 77.5802 757.672 76.9943 754.807 76.9943 750.432 76.9943 746.109 78.713 741.839 82.1505 737.568 85.588 733.622 90.7833 730.003 97.7365 726.383 104.69 723.466 112.906 721.253 122.385 719.039 131.864 717.932 140.406 717.932 148.01 717.932 152.385 718.336 156.005 719.143 158.869 719.951 161.734 721.357 163.947 723.362 165.51 725.367 167.072 728.141 167.854 731.682 167.854 737.099 167.854 741.591 166.499 745.159 163.791 748.727 161.083 751.943 156.421 754.807 149.807L765.042 149.807 760.042 172.854C754.99 174.312 749.964 175.367 744.964 176.018 739.964 176.669 734.599 176.994 728.87 176.994 717.776 176.994 709.26 173.96 703.323 167.893 697.385 161.825 694.417 153.088 694.417 141.682 694.417 137.359 694.885 132.385 695.823 126.76 697.333 117.854 699.833 109.624 703.323 102.072 706.812 94.5203 711.201 88.1792 716.487 83.049 721.773 77.9187 727.711 74.1036 734.299 71.6036 740.888 69.1036 748.01 67.8536 755.667 67.8536Z" fill="#FFFF00" fill-rule="evenodd"/><text fill="#000000" fill-opacity="0" font-family="Arial,Arial_MSFontService,sans-serif" font-size="109.141" x="694.417" y="163.352">𝑪</text><path d="M454.5 378.5C454.5 361.932 467.26 348.5 483 348.5 498.74 348.5 511.5 361.932 511.5 378.5 511.5 395.069 498.74 408.5 483 408.5 467.26 408.5 454.5 395.069 454.5 378.5Z" stroke="#FFFFFF" stroke-width="13.3333" stroke-miterlimit="8" fill="#FFC000" fill-rule="evenodd"/></g></svg>